#!OML:ASF Z:\Project 1\Capture day 1\Session 1\Male1.ASF
:FULLY-SPECIFIED
:DEGREES
1284
root 24.0925 16.4908 -5.78981 -165.782 37.2091 -178.436
lowerback -2.81213 -2.48488 0.288735
upperback 0.976031 -3.35171 3.08761
thorax 2.74889 -1.67249 2.84112
lowerneck -5.88968 -3.50136 -0.770756
upperneck -6.00034 -4.29212 3.56917
head -0.774182 -2.04922 1.17628
rclavicle -6.54002e-014 6.83819e-014
rhumerus 82.5482 -2.82239 -56.7024
rradius 41.8548
rwrist 32.657
rhand -67.0477 21.6051
rfingers 7.12502
rthumb -38.8318 -3.96293
lclavicle -6.54002e-014 6.83819e-014
lhumerus 84.5437 8.48488 55.4688
lradius 56.0561
lwrist -28.0214
lhand -45.8186 -299.676
lfingers 7.12502
lthumb -18.5712 -270.542
rfemur -23.4604 -6.00854 24.8476
rtibia 21.7728
rfoot -12.5899 -3.87304
rtoes -4.53244
lfemur 15.5863 -1.95945 -12.4981
ltibia 1.27222e-014
lfoot 9.74536 1.59649
ltoes 39.0661
1285
root 24.0884 16.4916 -5.78494 -165.607 37.3089 -178.226
lowerback -2.70097 -2.42919 0.440026
upperback 1.03722 -3.2801 3.11279
thorax 2.73879 -1.63345 2.78987
lowerneck -5.61511 -3.48769 -0.559263
upperneck -6.21464 -4.26591 3.78496
head -0.886211 -2.04423 1.21748
rclavicle 1.04461e-013 -3.22031e-014
rhumerus 82.6534 -3.12767 -56.2385
rradius 41.9157
rwrist 32.2872
rhand -67.385 19.4817
rfingers 7.12502
rthumb -39.1498 -5.99525
lclavicle 1.04461e-013 -3.22031e-014
lhumerus 84.4086 9.17647 55.4454
lradius 58.2063
lwrist -28.2795
lhand -45.4697 -300.778
lfingers 7.12502
lthumb -18.2356 -271.612
rfemur -23.5149 -6.19011 25.0844
rtibia 21.7119
rfoot -12.642 -3.65246
rtoes -4.69222
lfemur 15.5341 -1.83833 -12.3243
ltibia 2.54444e-014
lfoot 9.77707 1.35202
ltoes 38.9111
1286
root 24.0821 16.4893 -5.78128 -165.457 37.4644 -177.946
lowerback -2.53471 -2.34265 0.701846
upperback 1.23378 -3.1706 3.19842
thorax 2.83339 -1.57283 2.74063
lowerneck -6.31034 -3.46173 -0.506469
upperneck -6.02491 -4.22393 3.91017
head -0.712808 -2.01006 1.23176
rclavicle -1.46107e-013 -6.75868e-015
rhumerus 82.8886 -3.48832 -55.55
rradius 41.8599
rwrist 31.6365
rhand -67.8169 17.4402
rfingers 7.12502
rthumb -39.5567 -7.91809
lclavicle -1.46107e-013 -6.75868e-015
lhumerus 84.5987 9.85675 55.8989
lradius 60.3016
lwrist -28.7965
lhand -45.4418 -301.314
lfingers 7.12502
lthumb -18.2087 -272.147
rfemur -23.4762 -6.25985 25.332
rtibia 21.6208
rfoot -12.6958 -3.39556
rtoes -6.53735
lfemur 15.6028 -1.65925 -12.1119
ltibia 2.8625e-014
lfoot 9.74555 1.21942
ltoes 38.6776
1287
root 24.0794 16.4844 -5.77875 -165.329 37.6675 -177.668
lowerback -2.34188 -2.25095 0.832614
upperback 1.3016 -3.04554 3.30836
thorax 2.78854 -1.50649 2.794
lowerneck -6.61612 -3.4431 -0.144453
upperneck -5.88756 -4.22809 3.71558
head -0.632664 -2.0131 1.10247
rclavicle 6.75868e-015 1.03368e-014
rhumerus 83.1097 -3.74187 -55.5014
rradius 41.8444
rwrist 32.095
rhand -67.9615 13.0979
rfingers 7.12502
rthumb -39.693 -12.22
lclavicle 6.75868e-015 1.03368e-014
lhumerus 84.6267 10.3562 56.2463
lradius 62.1981
lwrist -29.254
lhand -45.1503 -301.346
lfingers 7.12502
lthumb -17.9283 -272.152
rfemur -23.392 -6.21422 25.5545
rtibia 21.5177
rfoot -12.7739 -3.34063
rtoes -7.2112
lfemur 15.7274 -1.44063 -11.9048
ltibia -2.8625e-014
lfoot 9.61622 1.28599
ltoes 38.9162
1288
root 24.0788 16.4826 -5.77773 -165.178 37.8077 -177.521
lowerback -2.27841 -2.28031 0.841504
upperback 1.30938 -3.08133 3.44892
thorax 2.77009 -1.52331 2.93508
lowerneck -6.86225 -3.32114 0.20632
upperneck -5.7248 -4.10716 3.2946
head -0.561753 -1.95586 0.908942
rclavicle 1.59028e-014 -1.90833e-014
rhumerus 83.546 -3.8582 -55.6217
rradius 41.9109
rwrist 32.4044
rhand -68.1606 9.03998
rfingers 7.12502
rthumb -39.8804 -16.2221
lclavicle 1.59028e-014 -1.90833e-014
lhumerus 84.3848 11.1479 56.2575
lradius 63.8684
lwrist -29.5183
lhand -44.8782 -301.63
lfingers 7.12502
lthumb -17.6664 -272.413
rfemur -23.3951 -5.94663 25.6298
rtibia 21.4028
rfoot -12.7199 -3.37089
rtoes -7.07892
lfemur 15.7234 -1.29107 -11.7916
ltibia -6.99722e-014
lfoot 9.54094 1.3309
ltoes 39.5292
1289
root 24.0778 16.4849 -5.7776 -164.981 37.9023 -177.423
lowerback -2.26186 -2.31142 0.947516
upperback 1.37767 -3.12614 3.49182
thorax 2.83012 -1.54308 2.9173
lowerneck -8.15126 -3.28277 0.122256
upperneck -5.22802 -4.05301 3.53496
head -0.19478 -1.90082 0.971814
rclavicle -6.61953e-014 2.22639e-014
rhumerus 83.8991 -4.04465 -54.9834
rradius 43.0249
rwrist 32.7934
rhand -68.101 6.53326
rfingers 7.12502
rthumb -39.8242 -18.7456
lclavicle -6.61953e-014 2.22639e-014
lhumerus 84.3683 11.8973 56.3559
lradius 65.3917
lwrist -29.8023
lhand -44.7626 -301.821
lfingers 7.12502
lthumb -17.5552 -272.594
rfemur -23.5013 -5.82176 25.6991
rtibia 21.2951
rfoot -12.75 -3.33911
rtoes -5.64458
lfemur 15.6245 -1.17938 -11.7212
ltibia 2.22639e-014
lfoot 9.49178 1.26952
ltoes 39.7539
